#N canvas 742 71 644 169 12;
#X text 21 16 Bit crusher like OTO BISCUIT.;
#X obj 49 53 osc~ 1;
#X obj 68 83 tgl 15 0 empty empty empty 17 7 0 10 -262144 -1 -1 0 1
;
#X obj 88 83 tgl 15 0 empty empty empty 17 7 0 10 -262144 -1 -1 0 1
;
#X obj 108 83 tgl 15 0 empty empty empty 17 7 0 10 -262144 -1 -1 0
1;
#X obj 128 83 tgl 15 0 empty empty empty 17 7 0 10 -262144 -1 -1 0
1;
#X obj 148 83 tgl 15 0 empty empty empty 17 7 0 10 -262144 -1 -1 0
1;
#X obj 168 83 tgl 15 0 empty empty empty 17 7 0 10 -262144 -1 -1 0
1;
#X obj 188 83 tgl 15 0 empty empty empty 17 7 0 10 -262144 -1 -1 0
1;
#X obj 208 83 tgl 15 0 empty empty empty 17 7 0 10 -262144 -1 -1 0
1;
#X obj 228 83 tgl 15 0 empty empty empty 17 7 0 10 -262144 -1 -1 0
1;
#X text 271 81 inlet2(arg1) -> active [0 \, 1] default=0;
#X text 271 102 inlet3-9(arg2-10) -> bit flag [0 \, 1] defalut=0;
#X obj 49 106 xin/biscuitInv~, f 26;
#X connect 1 0 13 0;
#X connect 2 0 13 1;
#X connect 3 0 13 2;
#X connect 4 0 13 3;
#X connect 5 0 13 4;
#X connect 6 0 13 5;
#X connect 7 0 13 6;
#X connect 8 0 13 7;
#X connect 9 0 13 8;
#X connect 10 0 13 9;
