#N canvas 845 137 622 250 12;
#X msg 49 58 0 \, 1 1000;
#X obj 49 81 line~;
#X obj 49 150 xin/easeExp~, f 27;
#X floatatom 95 128 5 0 1 0 - - -;
#X floatatom 142 128 5 0 1 0 - - -;
#X obj 235 128 tgl 15 0 empty empty empty 17 7 0 10 -262144 -1 -1 0
1;
#X text 289 111 inlet4(arg3) -> easing type [0 \, 6] \, default==0
;
#X text 289 132 inlet5(arg4) -> flip [0 \, 1] \, defalut==0;
#X obj 188 55 vradio 15 1 0 6 empty empty empty 0 -8 0 10 -262144 -1
-1 2;
#X text 21 16 Exponential easing of the [0 \, 1] ramp signal.;
#X text 289 69 inlet2(arg1) -> width [0 \, 1] \, default==0.5;
#X text 289 90 inlet3(arg2) -> curve [0 \, 1] \, default=0;
#X connect 0 0 1 0;
#X connect 1 0 2 0;
#X connect 3 0 2 1;
#X connect 4 0 2 2;
#X connect 5 0 2 4;
#X connect 8 0 2 3;
