#N canvas 0 23 345 221 12;
#X obj 32 93 hsl 128 15 0 1 0 0 empty empty empty -2 -8 0 10 -262144
-1 -1 0 1;
#X obj 32 176 hsl 128 15 0 1 0 0 empty empty empty -2 -8 0 10 -262144
-1 -1 0 1;
#X msg 252 116 mode \$1;
#X floatatom 178 93 5 0 1 0 - - -;
#X obj 252 93 hradio 15 1 0 4 empty empty empty 0 -8 0 10 -262144 -1
-1 3;
#X text 11 37 arg1 -> curve (default==0) arg2 -> mode (default==0)
, f 29;
#X msg 178 116 curve \$1;
#X obj 29 153 xin/psEaseExp;
#X text 11 16 Ease phasor [0 \, 1] exponentially.;
#X connect 0 0 7 0;
#X connect 2 0 7 0;
#X connect 3 0 6 0;
#X connect 4 0 2 0;
#X connect 6 0 7 0;
#X connect 7 0 1 0;
