#N canvas 0 23 435 221 12;
#X obj 32 93 hsl 128 15 0 1 0 0 empty empty empty -2 -8 0 10 -262144
-1 -1 0 1;
#X obj 32 176 hsl 128 15 0 1 0 0 empty empty empty -2 -8 0 10 -262144
-1 -1 0 1;
#X obj 254 93 tgl 15 0 empty empty empty 17 7 0 10 -262144 -1 -1 0
1;
#X msg 254 116 mode \$1;
#X floatatom 178 93 5 0 1 0 - - -;
#X text 11 16 Shape unipolar [0 \, 1].;
#X obj 29 153 xin/psShift;
#X msg 178 116 ratio \$1;
#X text 11 37 arg1 -> ratio (default==0.5) arg2 -> mode (default==0)
, f 29;
#X connect 0 0 6 0;
#X connect 2 0 3 0;
#X connect 3 0 6 0;
#X connect 4 0 7 0;
#X connect 6 0 1 0;
#X connect 7 0 6 0;
